<?xml version="1.0" standalone="no"?>
<!DOCTYPE svg PUBLIC "-//W3C//DTD SVG 20010904//EN"
 "http://www.w3.org/TR/2001/REC-SVG-20010904/DTD/svg10.dtd">
<svg version="1.0" xmlns="http://www.w3.org/2000/svg"
 width="1280.000000pt" height="1280.000000pt" viewBox="0 0 1280.000000 1280.000000"
 preserveAspectRatio="xMidYMid meet">
<metadata>
Created by potrace 1.15, written by Peter Selinger 2001-2017
</metadata>
<g transform="translate(0.000000,1280.000000) scale(0.100000,-0.100000)"
fill="#000000" stroke="none">
<path d="M6446 11950 c4 -14 13 -37 20 -52 11 -22 14 -110 13 -455 -1 -235 -4
-439 -8 -453 -4 -16 -24 -33 -56 -50 -109 -56 -156 -145 -136 -256 6 -32 11
-59 11 -61 0 -2 18 -23 41 -48 l40 -44 -30 -16 c-38 -19 -40 -48 -6 -63 36
-17 40 -36 16 -85 -18 -37 -28 -46 -69 -58 l-47 -14 -7 -54 c-3 -29 -10 -57
-15 -61 -4 -5 -168 -113 -363 -242 -229 -150 -405 -258 -495 -303 -96 -48
-141 -76 -143 -89 -3 -12 16 -39 53 -76 l57 -58 -1 -205 c-1 -213 -4 -237 -26
-237 -34 0 -33 -73 1 -103 l26 -22 -7 -190 c-3 -104 -6 -249 -6 -321 1 -129 1
-132 -21 -138 -37 -10 -66 -7 -64 7 2 20 -19 19 -22 -1 -2 -14 -28 -27 -95
-51 -51 -18 -105 -34 -122 -36 -24 -1 -31 -8 -38 -35 -5 -19 -5 -43 0 -54 12
-28 4 -436 -8 -436 -5 0 -14 12 -19 26 -6 14 -14 22 -20 19 -12 -7 16 -66 36
-78 10 -5 14 -28 14 -71 0 -54 -3 -66 -25 -86 -25 -24 -34 -73 -15 -85 6 -3
10 -21 10 -40 0 -27 7 -40 35 -62 28 -22 35 -35 35 -63 1 -19 11 -132 24 -250
13 -118 23 -216 22 -217 0 -1 -54 -13 -118 -28 -65 -14 -143 -35 -174 -45 -72
-25 -83 -25 -77 0 4 14 0 20 -11 20 -10 0 -16 -9 -16 -24 0 -13 -9 -35 -20
-48 -18 -24 -20 -46 -24 -359 -3 -184 -8 -350 -11 -369 -5 -28 -16 -41 -45
-58 -21 -12 -41 -30 -45 -41 -8 -25 46 -128 264 -506 l173 -300 -7 -75 c-4
-41 -10 -79 -15 -85 -4 -5 -10 -100 -14 -210 -4 -110 -8 -218 -11 -240 -2 -22
-11 -137 -20 -255 -9 -118 -23 -244 -31 -280 -24 -103 -46 -355 -39 -450 3
-47 2 -97 -3 -110 -5 -14 -12 -68 -15 -120 l-5 -95 13 75 c16 98 18 72 3 -62
-8 -77 -15 -109 -26 -113 -11 -4 -13 0 -8 17 16 56 15 78 -1 33 l-18 -50 -79
-25 c-97 -31 -116 -53 -125 -142 -5 -46 -2 -80 11 -128 10 -36 21 -117 24
-180 3 -63 15 -169 26 -235 43 -268 32 -671 -27 -960 -8 -38 -20 -113 -26
-165 -6 -52 -22 -153 -36 -225 -17 -90 -27 -193 -33 -335 -5 -113 -14 -241
-20 -285 -14 -102 -29 -192 -37 -210 -4 -13 239 -15 1921 -15 l1926 0 0 23 c0
12 -7 60 -14 108 -8 47 -17 150 -21 230 -3 79 -12 200 -21 269 -20 170 -53
544 -64 715 -5 77 -18 203 -30 280 -12 84 -18 160 -15 190 3 28 1 102 -5 165
-6 63 -11 122 -12 130 0 8 -7 62 -15 120 -33 237 -39 290 -33 300 3 5 38 16
78 25 84 17 127 37 142 64 6 12 7 50 3 96 -7 92 -10 94 -138 128 l-90 24 -12
134 c-7 74 -24 321 -38 549 -13 228 -37 551 -51 717 l-27 302 22 36 c22 37 29
119 12 130 -6 3 -17 19 -25 37 -23 45 -24 459 -1 478 8 7 15 18 15 25 0 7 11
29 25 49 16 23 25 51 25 74 l0 37 64 13 c87 16 214 57 254 82 24 15 32 27 32
48 0 20 9 35 30 50 49 36 34 84 -37 121 l-22 11 4 338 c5 425 5 465 0 471 -3
2 -13 -3 -23 -12 -17 -15 -23 -14 -94 13 -68 27 -245 67 -370 85 -27 3 -49 12
-49 18 -1 7 -2 21 -3 32 -1 29 -31 25 -31 -4 0 -13 -6 -26 -13 -29 -10 -3 -12
40 -10 208 l3 213 92 22 c53 13 113 35 140 52 42 26 48 33 48 64 -1 19 5 40
12 47 21 21 15 61 -12 86 -22 20 -25 32 -25 89 0 36 4 68 8 71 5 3 7 98 4 211
-4 157 -1 216 9 247 l13 41 -38 33 c-21 18 -53 38 -72 44 -21 7 -34 19 -36 32
-4 25 -28 37 -28 14 0 -20 3 -20 -108 5 l-93 22 5 201 c2 110 5 212 5 226 1
14 2 61 2 105 0 72 3 82 25 103 30 28 34 89 7 99 -10 4 -21 11 -25 17 -13 18
-10 344 3 352 6 3 8 20 5 38 -8 46 21 96 72 124 24 13 42 31 42 40 0 9 -24 42
-54 73 -39 42 -63 58 -91 63 -24 5 -105 53 -224 133 -385 261 -620 424 -628
436 -4 7 -10 32 -13 57 -5 43 -7 46 -48 59 -79 25 -110 120 -49 149 33 16 33
41 -1 58 -36 18 -36 21 2 66 37 43 66 118 66 171 0 87 -58 169 -143 202 -43
16 -46 20 -51 59 -3 22 -10 223 -16 446 -12 403 -12 405 10 459 11 29 19 55
17 58 -2 2 -10 -11 -17 -28 -12 -28 -15 -30 -21 -13 -6 15 -8 13 -9 -11 -1
-30 -1 -30 -26 15 -13 25 -22 34 -18 20z m-1136 -3030 c0 -37 -11 -52 -24 -31
-8 13 5 71 15 71 5 0 9 -18 9 -40z m2350 -60 c0 -29 -4 -40 -15 -40 -10 0 -15
10 -15 33 0 19 3 37 7 40 15 16 23 5 23 -33z m-2350 -774 c0 -51 -3 -114 -6
-140 -7 -46 -7 -47 -38 -40 -17 3 -32 7 -32 8 -1 0 -3 55 -5 121 l-4 120 35
12 c19 6 38 12 43 12 4 1 7 -41 7 -93z m-100 -51 c0 -63 -2 -115 -5 -115 -3 0
-21 7 -40 14 -24 10 -35 22 -35 35 0 12 -7 21 -15 21 -8 0 -15 -7 -15 -15 0
-14 -4 -14 -32 1 -70 35 -96 77 -63 104 21 18 156 69 183 70 22 0 22 -2 22
-115z m2528 84 l83 -21 -3 -92 -3 -91 -60 -16 c-65 -18 -77 -16 -68 6 3 9 -1
15 -10 15 -9 0 -17 -10 -19 -22 -2 -15 -10 -23 -23 -23 -13 0 -19 5 -16 15 1
8 3 70 3 138 -1 111 1 122 16 118 9 -3 54 -15 100 -27z m197 -98 c3 -11 2 -29
-4 -39 -10 -19 -77 -59 -85 -51 -3 3 -2 37 1 76 l6 72 38 -19 c21 -11 40 -29
44 -39z m-2830 -296 c-4 -110 -9 -202 -11 -204 -2 -3 -31 8 -64 24 l-60 29 0
177 c0 97 3 189 6 205 l6 29 65 -30 65 -30 -7 -200z m2845 111 c0 -57 -3 -124
-6 -149 l-7 -46 -48 25 -49 24 0 103 0 102 48 22 c26 11 50 22 55 22 4 1 7
-46 7 -103z m-2740 1 c0 -45 -4 -63 -17 -73 -17 -13 -17 -15 0 -28 15 -12 17
-28 15 -127 l-3 -114 -29 2 c-58 4 -56 -1 -56 186 0 96 3 188 6 204 6 30 7 30
45 20 l39 -9 0 -61z m68 47 c20 -6 23 -12 20 -53 -3 -44 -4 -46 -35 -49 l-33
-3 0 55 c0 58 3 62 48 50z m2542 -89 l0 -96 -37 7 c-91 17 -88 14 -91 87 l-3
66 43 11 c24 6 48 13 53 15 32 12 35 4 35 -90z m-150 12 c0 -23 -4 -48 -9 -55
-9 -14 -46 -13 -43 1 1 4 2 27 2 51 0 34 4 45 18 49 27 6 32 -1 32 -46z
m-2370 -181 l0 -114 -31 -7 c-17 -4 -34 -3 -38 1 -4 5 -6 60 -3 122 l4 112 34
0 34 0 0 -114z m2357 66 c8 -5 10 -37 6 -110 -6 -97 -7 -103 -27 -100 -12 2
-20 6 -18 11 1 4 2 52 2 107 0 100 5 113 37 92z m106 -22 l58 -12 -3 -81 -3
-81 -46 -18 c-26 -9 -56 -14 -68 -11 -18 5 -21 13 -21 62 0 72 11 162 19 157
3 -2 32 -9 64 -16z m129 -47 c50 -19 57 -28 50 -55 -4 -16 -67 -58 -88 -58 -4
0 -4 20 -2 45 3 25 2 48 -3 51 -9 5 -13 34 -4 34 2 0 24 -8 47 -17z m-2802
-143 c17 -10 22 -7 -60 -34 -25 -9 -48 -16 -52 -16 -5 0 -8 22 -8 50 l0 50 52
-21 c29 -11 59 -24 68 -29z m2850 -30 c0 -27 -4 -50 -10 -50 -5 0 -28 7 -50
16 -50 20 -50 42 0 66 55 27 60 24 60 -32z m-2895 -290 c-3 -5 -10 -10 -16
-10 -5 0 -9 5 -9 10 0 6 7 10 16 10 8 0 12 -4 9 -10z m42 -8 c7 -4 16 -43 22
-87 l10 -80 -32 -26 c-39 -33 -41 -29 -51 85 -6 66 -4 81 10 97 19 21 23 22
41 11z m111 -28 c5 -4 2 -418 -3 -423 -3 -2 -7 -2 -9 0 -3 4 -46 398 -46 427
0 8 9 10 28 6 15 -4 28 -8 30 -10z m-65 -304 c6 -54 6 -56 -27 -82 l-34 -27
-6 42 c-20 155 -21 151 16 182 l33 28 6 -44 c3 -24 9 -69 12 -99z m7 -105 c0
-18 -5 -25 -19 -25 -11 0 -28 -3 -38 -7 -13 -4 -9 3 11 25 36 39 46 40 46 7z
m60 -72 c0 -43 -5 -41 -13 5 -4 18 -2 32 3 32 6 0 10 -16 10 -37z m-68 -47
c-2 -50 -8 -79 -18 -87 -8 -6 -17 -10 -19 -7 -8 7 -24 151 -19 160 3 4 17 8
32 8 l27 0 -3 -74z m-92 -87 l0 -150 -32 3 -33 3 -3 142 c-2 128 -1 142 15
146 55 14 53 19 53 -144z m-80 1 l0 -140 -25 0 -25 0 0 134 c0 132 0 135 23
139 12 2 23 5 25 6 1 0 2 -62 2 -139z m2766 129 c9 -16 -6 -339 -17 -339 -5 0
-9 79 -9 175 0 161 5 197 26 164z m94 -159 c0 -120 -3 -162 -12 -164 -7 -3
-25 -7 -40 -10 l-28 -6 0 163 c0 90 3 167 7 170 3 4 21 7 40 7 l33 0 0 -160z
m-2920 32 c0 -65 -3 -121 -6 -124 -3 -3 -14 -4 -25 -1 -17 5 -19 15 -19 117 0
62 3 116 7 119 3 4 15 7 25 7 16 0 18 -10 18 -118z m3008 103 c1 -1 0 -68 -4
-149 l-7 -146 -34 0 -33 0 0 94 c0 51 3 121 6 155 l7 62 31 -7 c17 -3 32 -7
34 -9z m-3068 -111 c0 -74 -4 -113 -10 -109 -5 3 -10 18 -10 32 0 18 -4 24
-15 19 -13 -4 -15 8 -15 79 0 85 1 87 43 94 4 0 7 -51 7 -115z m3139 100 c2
-2 3 -47 2 -101 -1 -69 -6 -101 -15 -108 -8 -6 -16 -22 -18 -35 -2 -15 -11
-26 -22 -28 -18 -4 -19 1 -13 64 4 38 7 104 7 147 l0 77 28 -6 c15 -4 29 -8
31 -10z m-3203 -96 c-4 -51 -9 -94 -12 -97 -2 -3 -9 0 -16 7 -15 15 -11 164 5
174 26 17 30 5 23 -84z m384 62 c0 -16 -4 -30 -10 -30 -5 0 -10 14 -10 30 0
17 5 30 10 30 6 0 10 -13 10 -30z m2888 -97 c2 -102 0 -123 -12 -123 -8 0 -21
-3 -30 -6 -13 -5 -16 3 -16 48 0 30 3 90 7 132 5 71 8 77 27 74 20 -3 21 -10
24 -125z m-3328 32 c0 -62 -2 -73 -15 -69 -11 5 -15 22 -15 69 0 57 4 67 28
74 1 1 2 -33 2 -74z m3378 -32 c-3 -93 -5 -108 -20 -111 -16 -3 -18 7 -18 107
0 105 1 111 20 111 20 0 21 -5 18 -107z m36 91 c11 -4 16 -19 16 -49 0 -75
-12 -135 -26 -135 -11 0 -14 21 -14 95 0 52 2 95 4 95 2 0 11 -3 20 -6z
m-3454 -65 c0 -31 -4 -48 -10 -44 -17 11 -12 95 7 95 2 0 3 -23 3 -51z m3508
-26 c-2 -50 -7 -78 -15 -81 -10 -3 -13 17 -13 77 0 66 3 81 15 81 13 0 15 -13
13 -77z m-3551 20 c-3 -10 -5 -4 -5 12 0 17 2 24 5 18 2 -7 2 -21 0 -30z
m3593 -28 c0 -47 -12 -76 -26 -63 -8 9 9 127 17 122 5 -3 9 -29 9 -59z m-3060
33 c0 -13 3 -53 7 -90 6 -65 5 -68 -16 -68 -20 0 -21 5 -21 83 0 46 3 87 7 90
13 13 23 7 23 -15z m3090 -27 c0 -22 -4 -43 -10 -46 -6 -4 -10 12 -10 39 0 25
5 46 10 46 6 0 10 -18 10 -39z m-3130 -56 c0 -42 -4 -75 -10 -75 -18 0 -34
118 -18 137 21 26 28 12 28 -62z m-61 -38 c1 -16 -3 -26 -9 -22 -5 3 -9 34 -9
68 1 59 2 60 10 22 4 -22 8 -53 8 -68z m-430 -124 c-1 -109 -4 -238 -8 -288
-6 -65 -8 -11 -9 198 -1 186 2 287 8 287 6 0 10 -72 9 -197z m22 -243 l-8
-125 -2 211 c0 116 2 240 7 275 11 98 14 -204 3 -361z m139 410 c0 -5 -5 -10
-11 -10 -5 0 -7 5 -4 10 3 6 8 10 11 10 2 0 4 -4 4 -10z m-105 -508 c-14 -14
-15 24 -8 259 l8 254 3 -254 c1 -140 0 -256 -3 -259z m22 126 c-1 -68 -3 -13
-3 122 0 135 2 190 3 123 2 -68 2 -178 0 -245z m23 -112 c-12 -12 -14 338 -2
424 5 36 8 -24 10 -179 1 -150 -1 -238 -8 -245z m3512 242 c-1 -128 -7 -253
-11 -278 -6 -31 -9 30 -9 190 1 238 5 320 17 320 3 0 5 -105 3 -232z m-3478
-5 c-4 -126 -8 -230 -10 -232 -2 -2 -4 100 -4 227 0 147 4 232 10 232 6 0 8
-79 4 -227z m3446 -34 c0 -183 -3 -260 -11 -257 -17 6 -10 518 7 518 2 0 4
-117 4 -261z m-3425 -187 c-13 -13 -14 18 -7 224 l7 219 3 -219 c1 -120 0
-221 -3 -224z m45 229 c0 -129 -4 -212 -10 -216 -7 -4 -10 68 -10 209 0 137 4
216 10 216 6 0 10 -76 10 -209z m3345 -45 c-7 -213 -10 -244 -23 -239 -13 6
-14 36 -9 241 4 175 9 237 19 243 7 4 14 6 16 4 2 -2 1 -114 -3 -249z m-3315
40 c0 -126 -4 -207 -10 -211 -7 -4 -10 67 -10 204 0 134 4 211 10 211 6 0 10
-75 10 -204z m23 -3 c-3 -109 -7 -200 -9 -202 -2 -2 -4 86 -4 197 0 115 4 202
9 202 6 0 7 -81 4 -197z m47 2 c0 -192 0 -195 -21 -195 -20 0 -21 4 -15 46 3
26 6 114 6 195 0 126 2 149 15 149 13 0 15 -28 15 -195z m3195 -162 c-12 -178
-25 -114 -25 121 0 171 3 225 13 229 15 5 22 -194 12 -350z m-3131 341 c14 -5
16 -31 16 -185 l0 -179 -30 0 -30 0 0 185 c0 194 0 196 44 179z m3082 -216
c-3 -116 -8 -214 -11 -216 -15 -15 -25 21 -27 96 l-2 87 -6 -90 -6 -90 -2 101
c-1 55 1 150 6 210 l7 109 5 -120 6 -120 2 123 c2 106 4 122 19 122 15 0 16
-19 9 -212z m-2995 40 c16 -171 15 -178 -28 -178 -22 0 -23 3 -23 88 0 137 11
252 25 252 8 0 16 -53 26 -162z m39 136 c0 -8 -4 -14 -10 -14 -5 0 -10 9 -10
21 0 11 5 17 10 14 6 -3 10 -13 10 -21z m2892 -181 c-4 -181 -5 -193 -23 -193
-15 0 -19 8 -20 38 l-2 37 -7 -40 c-4 -24 -8 31 -9 137 -1 202 11 269 20 103
l5 -110 2 112 c1 78 6 113 15 116 6 2 15 2 18 -2 3 -3 3 -93 1 -198z m-2862
193 c0 -3 -4 -8 -10 -11 -5 -3 -10 -1 -10 4 0 6 5 11 10 11 6 0 10 -2 10 -4z
m30 -105 l0 -110 -31 -22 -32 -22 5 111 c5 102 8 114 29 132 13 10 25 19 27
20 1 0 2 -49 2 -109z m2760 -40 c0 -166 -7 -231 -26 -231 -11 0 -14 25 -14
118 0 163 9 252 26 252 11 0 14 -29 14 -139z m-74 77 c-3 -29 -6 -108 -6 -175
0 -125 -4 -136 -38 -114 -11 6 -12 41 -6 175 l7 166 25 0 c24 0 25 -2 18 -52z
m19 -296 c-14 -14 -16 20 -8 179 l8 174 3 -174 c1 -96 0 -176 -3 -179z m-105
291 c0 -27 -3 -99 -7 -160 -6 -110 -7 -113 -30 -113 -22 0 -23 2 -23 93 0 50
3 122 7 160 5 62 8 67 29 67 22 0 24 -4 24 -47z m26 1 c-3 -26 -6 -101 -6
-167 0 -73 -4 -117 -9 -111 -12 12 -1 324 12 324 6 0 7 -18 3 -46z m-96 -51
c0 -123 -11 -226 -22 -215 -12 12 1 302 13 302 5 0 9 -39 9 -87z m-2597 47
c-3 -11 -7 -20 -9 -20 -2 0 -4 9 -4 20 0 11 4 20 9 20 5 0 7 -9 4 -20z m67
-199 c0 -26 -14 -41 -41 -41 -16 0 -9 49 9 59 27 16 32 13 32 -18z m0 -91 c0
-33 -3 -40 -20 -40 -17 0 -20 7 -20 40 0 33 3 40 20 40 17 0 20 -7 20 -40z
m-80 -9 c0 -36 -2 -39 -32 -44 -43 -6 -49 1 -41 46 5 34 8 37 39 37 33 0 34
-1 34 -39z m-90 -10 c0 -38 -13 -50 -57 -51 -21 0 -17 78 5 83 46 12 52 8 52
-32z m-80 -11 c0 -33 -3 -40 -20 -40 -37 0 -21 75 18 80 1 0 2 -18 2 -40z
m2778 -4 c-2 -15 -7 -28 -13 -29 -12 -2 -19 38 -10 60 9 25 27 1 23 -31z m62
-6 c0 -22 -4 -40 -9 -40 -28 0 -41 14 -41 46 0 30 3 34 25 34 23 0 25 -4 25
-40z m-2912 -2 c-2 -25 -8 -34 -25 -36 -20 -3 -23 1 -23 27 0 27 8 35 43 40 5
0 7 -14 5 -31z m19 0 c-3 -7 -5 -2 -5 12 0 14 2 19 5 13 2 -7 2 -19 0 -25z
m2961 26 c17 -5 22 -14 22 -40 0 -36 -10 -40 -57 -28 -18 5 -23 14 -23 40 0
36 10 40 58 28z m76 -10 c10 -4 16 -18 16 -41 0 -32 -2 -35 -22 -29 -13 3 -26
6 -30 6 -5 0 -8 16 -8 35 0 36 10 42 44 29z m-3124 -33 c0 -20 -6 -30 -20 -34
-17 -4 -20 0 -20 23 0 25 10 37 33 39 4 1 7 -12 7 -28z m3220 -17 c0 -31 -3
-34 -30 -34 -28 0 -30 2 -30 38 0 37 1 38 30 34 27 -4 30 -8 30 -38z m-3280 2
c0 -13 -7 -26 -15 -30 -11 -4 -15 2 -15 24 0 20 5 30 15 30 9 0 15 -9 15 -24z
m3324 18 c10 -4 16 -18 16 -41 0 -28 -3 -34 -16 -29 -9 3 -20 6 -25 6 -5 0 -9
16 -9 35 0 35 5 40 34 29z m-3364 -28 c0 -8 -7 -19 -15 -26 -13 -10 -15 -9
-15 12 0 14 3 28 6 31 9 9 24 -2 24 -17z m3432 -22 c-5 -34 -7 -38 -21 -29
-12 7 -15 48 -4 59 14 14 28 -2 25 -30z m-3475 -6 c-3 -8 -6 -5 -6 6 -1 11 2
17 5 13 3 -3 4 -12 1 -19z m3523 -9 c0 -23 -4 -30 -17 -27 -9 2 -16 6 -15 11
1 4 2 16 2 27 0 11 7 20 15 20 10 0 15 -10 15 -31z m-3550 -1 c0 -16 -3 -19
-11 -11 -6 6 -8 16 -5 22 11 17 16 13 16 -11z m3588 -14 c-5 -28 -28 -29 -28
-1 0 13 3 27 7 30 10 11 25 -9 21 -29z m25 -14 c-3 -11 -7 -20 -9 -20 -2 0 -4
9 -4 20 0 11 4 20 9 20 5 0 7 -9 4 -20z m22 -9 c3 -5 1 -12 -5 -16 -5 -3 -10
1 -10 9 0 18 6 21 15 7z m-3715 -147 c0 -8 -4 -12 -10 -9 -5 3 -10 13 -10 21
0 8 5 12 10 9 6 -3 10 -13 10 -21z m195 -137 c33 -9 79 -18 103 -22 42 -7 42
-7 42 -48 0 -23 6 -53 13 -67 8 -14 18 -34 24 -45 28 -53 33 -81 35 -227 2
-117 0 -159 -9 -162 -8 -3 -55 71 -123 189 -60 107 -139 244 -175 304 -97 167
-94 155 -27 121 31 -15 84 -35 117 -43z m211 -683 c-3 -8 -10 -14 -16 -14 -10
0 -5 70 8 100 8 18 15 -66 8 -86z m-23 -321 c-2 -118 -11 -169 -27 -152 -2 2
-2 73 1 157 4 112 9 150 17 142 7 -7 10 -59 9 -147z m-17 -210 c-3 -27 -13
-122 -22 -213 -9 -91 -18 -167 -20 -169 -10 -10 -11 10 -3 94 25 272 33 335
42 335 6 0 7 -19 3 -47z m-41 -430 c-6 -36 -31 -273 -46 -433 -6 -69 -13 -127
-15 -129 -8 -8 -4 176 6 288 6 63 17 140 25 172 8 31 15 73 15 93 0 20 4 36
10 36 5 0 7 -12 5 -27z m-65 -658 c0 -8 -4 -15 -10 -15 -5 0 -7 7 -4 15 4 8 8
15 10 15 2 0 4 -7 4 -15z m-190 -585 c25 -10 63 -21 85 -24 l40 -7 -17 -157
c-10 -86 -20 -182 -22 -212 -6 -77 -24 -212 -41 -295 -7 -38 -17 -88 -22 -110
-5 -29 -9 4 -13 125 -4 91 -14 212 -23 270 -8 58 -20 164 -26 237 -6 73 -17
149 -26 169 -14 34 -14 36 3 29 9 -4 37 -15 62 -25z m-55 -1545 c-4 -52 -11
-98 -17 -101 -7 -4 -8 10 -4 42 3 27 8 75 12 107 10 92 17 57 9 -48z m-45
-298 c-7 -45 -16 -116 -20 -157 -8 -73 -8 -73 -5 25 3 98 25 249 33 226 2 -6
-2 -49 -8 -94z"/>
</g>
</svg>
